inDegrees=yes
name=ik_xsens_converted_data
DataType=double
version=3
OpenSimVersion=4.5
endheader
time	pelvis_tilt	pelvis_list	pelvis_rotation	pelvis_tx	pelvis_ty	pelvis_tz	hip_flexion_r	hip_adduction_r	hip_rotation_r	knee_angle_r	knee_angle_r_beta	ankle_angle_r	subtalar_angle_r	mtp_angle_r	hip_flexion_l	hip_adduction_l	hip_rotation_l	knee_angle_l	knee_angle_l_beta	ankle_angle_l	subtalar_angle_l	mtp_angle_l	lumbar_extension	lumbar_bending	lumbar_rotation	arm_flex_r	arm_add_r	arm_rot_r	elbow_flex_r	pro_sup_r	wrist_flex_r	wrist_dev_r	arm_flex_l	arm_add_l	arm_rot_l	elbow_flex_l	pro_sup_l	wrist_flex_l	wrist_dev_l
0	0	0	0	0	0.93	0	0	0	0	0	0	0	0	0	0	0	0	0	0	0	0	0	0	0	0	0	0	0	0	0	0	0	0	0	0	0	0	0	0
0.0167	0.4182686148889728	-0.2992486537710177	0.2275799055071143	6.66429692732001e-39	0.93	-8.647357328887127e-22	44.92163412743709	-9.994255035559629	6.423912571419131e-14	59.97545996085512	1.046769246714951	-4.999134475747524	-1.089093701970831e-13	-3.538069483289085e-18	44.92163412743709	-9.994255035559631	-1.445209267468208e-19	59.9754599608541	1.046769246714933	-4.999134446453314	-3.922050682018872e-17	2.139949379606131e-18	1.021395964636615e-22	3.620645830661238e-14	5.897819384730993e-14	-1.871176512786411e-14	-1.733060622931358e-12	-4.676656880050676e-13	0	4.260190141511183e-16	-1.580280618198555e-21	2.582993852593623e-19	-1.897079013847409e-12	-2.462750171910805e-13	1.274804404794928e-13	0	0	7.931167779209438e-22	3.78375023794324e-19
0.0333	0.845948960163176	-0.5864127055392614	0.4453317176728442	3.186183822264905e-58	0.93	-3.44383110592467e-41	44.92163602946334	-9.994255480324531	6.42351853732353e-14	59.97546046032273	1.046769255432306	-4.999134561353695	-4.138037154422024e-33	-1.683771628589691e-37	44.92163602946334	-9.994255480324533	-1.445209267468208e-19	59.97546046032171	1.046769255432288	-4.99913453206238	-2.020525954307629e-36	8.418858142948453e-38	3.853847416510828e-42	1.379345718140675e-33	2.758691436281349e-33	-6.896728590703373e-34	-6.620859447075238e-32	-2.206953149025079e-32	2.426570649309934e-20	2.426570649309934e-20	-6.166155866417324e-41	1.052357267868557e-38	-8.827812596100317e-32	-1.10347657451254e-32	5.517382872562698e-33	2.426570649309934e-20	2.426570649309934e-20	3.083077933208662e-41	1.578535901802835e-38
0.05	1.280742629007068	-0.8589710607857368	0.6524511002740779	1.295425283264167e-77	0.93	-1.244603055572228e-60	44.92163792964212	-9.994255924311407	6.422986052733183e-14	59.97546095949459	1.046769264144498	-4.999134646792383	-1.495489624216698e-52	-6.845808216323994e-57	44.92163792964212	-9.99425592431141	-1.445209267468208e-19	59.97546095949357	1.04676926414448	-4.999134617503965	-7.302195430745594e-56	3.422904108161997e-57	1.392783247136229e-61	5.608086090812616e-53	1.121617218162523e-52	-2.804043045406308e-53	-2.392783398746716e-51	-8.972937745300186e-52	2.426570649309934e-20	2.426570649309934e-20	-2.228453195417967e-60	4.278630135202496e-58	-3.589175098120074e-51	-4.486468872650093e-52	2.243234436325046e-52	2.426570649309934e-20	2.426570649309934e-20	1.114226597708983e-60	5.704840180269995e-58
0.0667	1.718142629676269	-1.122654229126918	0.8463749670010506	4.681676354692198e-97	0.93	-5.060255012750651e-80	44.92163982845969	-9.994256367722981	6.422593491476816e-14	59.97546145844491	1.046769272852824	-4.999134732106965	-6.080299123144778e-72	-2.47408004685253e-76	44.92163982845969	-9.994256367722985	-1.445209267468208e-19	59.9754614584439	1.046769272852806	-4.99913470282144	-2.968896056223036e-75	1.237040023426265e-76	5.662719833799431e-81	2.026766374381593e-72	4.053532748763186e-72	-1.013383187190796e-72	-9.728478597031645e-71	-3.242826199010548e-71	2.426570649309934e-20	2.426570649309934e-20	-9.06035173407909e-80	1.546300029282831e-77	-1.297130479604219e-70	-1.621413099505274e-71	8.107065497526371e-72	2.426570649309934e-20	2.426570649309934e-20	4.530175867039545e-80	2.319450043924247e-77
